<?xml version="1.0" encoding="UTF-8" standalone="no"?>
<!-- Created with Inkscape (http://www.inkscape.org/) -->

<svg
   width="210mm"
   height="297mm"
   viewBox="0 0 210 297"
   version="1.1"
   id="svg5"
   inkscape:version="1.1 (c68e22c387, 2021-05-23)"
   sodipodi:docname="favicon106.svg"
   xmlns:inkscape="http://www.inkscape.org/namespaces/inkscape"
   xmlns:sodipodi="http://sodipodi.sourceforge.net/DTD/sodipodi-0.dtd"
   xmlns="http://www.w3.org/2000/svg"
   xmlns:svg="http://www.w3.org/2000/svg">
  <sodipodi:namedview
     id="namedview7"
     pagecolor="#ffffff"
     bordercolor="#666666"
     borderopacity="1.0"
     inkscape:pageshadow="2"
     inkscape:pageopacity="0.0"
     inkscape:pagecheckerboard="0"
     inkscape:document-units="mm"
     showgrid="false"
     inkscape:zoom="1.7033109"
     inkscape:cx="421.82552"
     inkscape:cy="671.63312"
     inkscape:window-width="1366"
     inkscape:window-height="706"
     inkscape:window-x="-8"
     inkscape:window-y="-8"
     inkscape:window-maximized="1"
     inkscape:current-layer="layer1" />
  <defs
     id="defs2" />
  <g
     inkscape:label="Слой 1"
     inkscape:groupmode="layer"
     id="layer1">
    <path
       style="fill:#0000c1;fill-opacity:1;fill-rule:evenodd;stroke:#000000;stroke-width:0.264583px;stroke-linecap:butt;stroke-linejoin:miter;stroke-opacity:1"
       d="m 72.385982,204.73117 -0.621338,-61.20188 34.173636,32.62029 36.34833,-33.5523 -0.93201,63.37657 c -26.63275,14.15863 -48.754792,10.2744 -68.968618,-1.24268 z"
       id="path857"
       sodipodi:nodetypes="cccccc" />
    <path
       style="fill:#ed0000;fill-opacity:1;fill-rule:evenodd;stroke:#000000;stroke-width:0.364883px;stroke-linecap:butt;stroke-linejoin:miter;stroke-opacity:1"
       d="m 139.09014,148.37707 -64.264075,-0.58555 v 51.82143 c 21.99779,10.36395 42.996255,9.52811 63.323625,1.17111 l 0.62696,-25.47157 c -8.95148,-9.0354 -19.70888,-9.63769 -32.83837,0.83709 l 19.04511,13.50897 c -8.99223,6.48671 -19.30101,10.53699 -35.745536,-1.63712 -3.86086,-8.57343 -2.535878,-17.33518 -0.299413,-24.00767 4.811324,-8.54705 19.854909,-12.27109 31.446869,-6.29575 7.16017,3.69087 15.00035,11.22966 17.61467,11.55353 z"
       id="path4660"
       sodipodi:nodetypes="cccccccccscc" />
  </g>
</svg>
