<?xml version="1.0" encoding="UTF-8" standalone="no"?>
<!-- Created with Inkscape (http://www.inkscape.org/) -->

<svg
   xmlns:dc="http://purl.org/dc/elements/1.1/"
   xmlns:cc="http://creativecommons.org/ns#"
   xmlns:rdf="http://www.w3.org/1999/02/22-rdf-syntax-ns#"
   xmlns:svg="http://www.w3.org/2000/svg"
   xmlns="http://www.w3.org/2000/svg"
   xmlns:sodipodi="http://sodipodi.sourceforge.net/DTD/sodipodi-0.dtd"
   xmlns:inkscape="http://www.inkscape.org/namespaces/inkscape"
   width="210mm"
   height="297mm"
   viewBox="0 0 744.09448819 1052.3622047"
   id="svg2"
   version="1.1"
   inkscape:version="0.91 r13725"
   sodipodi:docname="favicon2.svg">
  <defs
     id="defs4" />
  <sodipodi:namedview
     id="base"
     pagecolor="#ffffff"
     bordercolor="#666666"
     borderopacity="1.0"
     inkscape:pageopacity="0.0"
     inkscape:pageshadow="2"
     inkscape:zoom="0.49497475"
     inkscape:cx="295.23621"
     inkscape:cy="511.40088"
     inkscape:document-units="px"
     inkscape:current-layer="layer1"
     showgrid="false"
     inkscape:window-width="1366"
     inkscape:window-height="706"
     inkscape:window-x="-8"
     inkscape:window-y="-8"
     inkscape:window-maximized="1" />
  <metadata
     id="metadata7">
    <rdf:RDF>
      <cc:Work
         rdf:about="">
        <dc:format>image/svg+xml</dc:format>
        <dc:type
           rdf:resource="http://purl.org/dc/dcmitype/StillImage" />
        <dc:title></dc:title>
      </cc:Work>
    </rdf:RDF>
  </metadata>
  <g
     inkscape:label="Layer 1"
     inkscape:groupmode="layer"
     id="layer1">
    <rect
       style="opacity:1;fill:#f9f9f9;fill-opacity:1;fill-rule:evenodd;stroke:#000000;stroke-width:57.65401077;stroke-miterlimit:4;stroke-dasharray:none;stroke-opacity:1"
       id="rect12591"
       width="652.88342"
       height="836.73108"
       x="54.385841"
       y="139.02188" />
    <path
       style="color:#000000;font-style:normal;font-variant:normal;font-weight:normal;font-stretch:normal;font-size:medium;line-height:normal;font-family:sans-serif;text-indent:0;text-align:start;text-decoration:none;text-decoration-line:none;text-decoration-style:solid;text-decoration-color:#000000;letter-spacing:normal;word-spacing:normal;text-transform:none;direction:ltr;block-progression:tb;writing-mode:lr-tb;baseline-shift:baseline;text-anchor:start;white-space:normal;clip-rule:nonzero;display:inline;overflow:visible;visibility:visible;opacity:1;isolation:auto;mix-blend-mode:normal;color-interpolation:sRGB;color-interpolation-filters:linearRGB;solid-color:#000000;solid-opacity:1;fill:#ff2a2a;fill-opacity:1;fill-rule:evenodd;stroke:none;stroke-width:1px;stroke-linecap:butt;stroke-linejoin:miter;stroke-miterlimit:4;stroke-dasharray:none;stroke-dashoffset:0;stroke-opacity:1;color-rendering:auto;image-rendering:auto;shape-rendering:auto;text-rendering:auto;enable-background:accumulate"
       d="M 396.9498,176.10793 C 384.44784,103.58171 177.0094,104.65275 124.45987,140.22706 47.743794,193.65101 41.116532,389.11406 41.699009,524.19323 41.89763,886.06053 192.00686,1021.2971 381.02195,1021.6051 630.03725,1022.011 721.70691,868.17804 722.79243,531.44366 726.97569,374.38926 744.10588,206.54885 673.99148,147.73046 583.98602,90.270384 428.55165,108.04933 396.9498,176.10793 Z m 197.18324,11.56332 C 698.8587,247.22257 679.76848,401.73373 639.26797,609.68717 607.79586,328.71479 532.87295,242.73119 396.21999,387.48917 199.69228,169.97327 141.25644,618.41874 139.17977,608.69562 62.224918,483.83515 124.45987,140.22706 250.07438,185.65168 c 0,0 75.62733,35.68542 147.17066,123.03765 68.01399,-99.08481 135.53499,-123.90023 196.888,-121.01808 z"
       id="path8068"
       inkscape:connector-curvature="0"
       inkscape:transform-center-x="8.6023573"
       inkscape:transform-center-y="-96.532501"
       sodipodi:nodetypes="cccscccccccccc" />
    <path
       d="m 391.68454,462.04929 c -140.5527,0 -254.3699,111.49885 -254.3699,248.88136 0,137.38249 113.8172,248.88138 254.3699,248.88138 140.8074,0 254.8792,-111.49889 254.8792,-248.88138 0,-137.38251 -114.0718,-248.88136 -254.8792,-248.88136 z m 176.4549,149.32881 -75.1143,0 c -8.148,-31.11017 -19.8607,-60.97593 -35.1382,-88.60176 46.851,15.67953 85.8085,47.53634 110.2525,88.60176 z m -176.2003,-98.55701 c 21.1339,29.86576 37.6845,62.96698 48.6333,98.55701 l -97.2665,0 c 10.9488,-35.59003 27.4994,-68.69125 48.6332,-98.55701 z m -197.0794,247.88583 c -4.074,-15.92841 -6.6202,-32.60346 -6.6202,-49.77627 0,-17.17282 2.5462,-33.84787 6.6202,-49.77628 l 86.0632,0 c -2.0371,16.42617 -3.5648,32.85234 -3.5648,49.77628 0,16.92393 1.5277,33.3501 3.5648,49.77627 l -86.0632,0 z m 20.8792,49.77627 75.1143,0 c 8.148,31.11015 19.8607,60.97595 35.1382,88.60175 -46.8509,-15.6795 -85.8085,-47.2875 -110.2525,-88.60175 z m 75.1143,-199.10509 -75.1143,0 c 24.444,-41.3143 63.4016,-72.92223 110.2525,-88.60176 -15.2775,27.62583 -26.9902,57.49159 -35.1382,88.60176 z m 101.0859,297.66214 c -21.1338,-29.8658 -37.6844,-62.967 -48.6332,-98.55705 l 97.2665,0 c -10.9488,35.59005 -27.4994,68.69125 -48.6333,98.55705 z m 59.5822,-148.33332 -119.1643,0 c -2.2916,-16.42617 -4.074,-32.85234 -4.074,-49.77627 0,-16.92394 1.7824,-33.59899 4.074,-49.77628 l 119.1643,0 c 2.2916,16.17729 4.074,32.85234 4.074,49.77628 0,16.92393 -1.7824,33.3501 -4.074,49.77627 z m 6.3656,138.37802 c 15.2775,-27.6258 26.9902,-57.4916 35.1382,-88.60175 l 75.1143,0 c -24.444,41.06545 -63.4015,72.92225 -110.2525,88.60175 z m 45.0686,-138.37802 c 2.037,-16.42617 3.5647,-32.85234 3.5647,-49.77627 0,-16.92394 -1.5277,-33.35011 -3.5647,-49.77628 l 86.0631,0 c 4.074,15.92841 6.6202,32.60346 6.6202,49.77628 0,17.17281 -2.5462,33.84786 -6.6202,49.77627 l -86.0631,0 z"
       id="path8096"
       inkscape:connector-curvature="0"
       style="fill:#ffffff" />
  </g>
</svg>
