<?xml version="1.0" encoding="UTF-8" standalone="no"?>
<!-- Created with Inkscape (http://www.inkscape.org/) -->

<svg
   xmlns:dc="http://purl.org/dc/elements/1.1/"
   xmlns:cc="http://creativecommons.org/ns#"
   xmlns:rdf="http://www.w3.org/1999/02/22-rdf-syntax-ns#"
   xmlns:svg="http://www.w3.org/2000/svg"
   xmlns="http://www.w3.org/2000/svg"
   xmlns:xlink="http://www.w3.org/1999/xlink"
   xmlns:sodipodi="http://sodipodi.sourceforge.net/DTD/sodipodi-0.dtd"
   xmlns:inkscape="http://www.inkscape.org/namespaces/inkscape"
   width="210mm"
   height="297mm"
   viewBox="0 0 744.09448819 1052.3622047"
   id="svg2"
   version="1.1"
   inkscape:version="0.91 r13725"
   sodipodi:docname="favicon8.svg">
  <defs
     id="defs4" />
  <sodipodi:namedview
     id="base"
     pagecolor="#ffffff"
     bordercolor="#666666"
     borderopacity="1.0"
     inkscape:pageopacity="0.0"
     inkscape:pageshadow="2"
     inkscape:zoom="0.35"
     inkscape:cx="480.18831"
     inkscape:cy="175.03387"
     inkscape:document-units="px"
     inkscape:current-layer="layer1"
     showgrid="false"
     inkscape:window-width="1366"
     inkscape:window-height="706"
     inkscape:window-x="-8"
     inkscape:window-y="-8"
     inkscape:window-maximized="1" />
  <metadata
     id="metadata7">
    <rdf:RDF>
      <cc:Work
         rdf:about="">
        <dc:format>image/svg+xml</dc:format>
        <dc:type
           rdf:resource="http://purl.org/dc/dcmitype/StillImage" />
        <dc:title></dc:title>
      </cc:Work>
    </rdf:RDF>
  </metadata>
  <g
     inkscape:label="Layer 1"
     inkscape:groupmode="layer"
     id="layer1">
    <path
       style="opacity:1;fill:#f50000;fill-opacity:1;fill-rule:nonzero;stroke:#f50000;stroke-width:20;stroke-linecap:round;stroke-linejoin:round;stroke-miterlimit:4;stroke-dasharray:none;stroke-opacity:1"
       id="path8072"
       sodipodi:type="arc"
       sodipodi:cx="288.90363"
       sodipodi:cy="626.07782"
       sodipodi:rx="242.43661"
       sodipodi:ry="230.31477"
       sodipodi:start="3.0860039"
       sodipodi:end="3.0840491"
       d="M 46.841492,638.87414 A 242.43661,230.31477 0 0 1 275.31552,396.12508 242.43661,230.31477 0 0 1 530.95248,613.05675 242.43661,230.31477 0 0 1 302.72831,856.01783 242.43661,230.31477 0 0 1 46.868285,639.32364 L 288.90363,626.07782 Z" />
    <path
       style="fill:none;fill-opacity:1;fill-rule:evenodd;stroke:#ffffff;stroke-width:60;stroke-linecap:butt;stroke-linejoin:round;stroke-miterlimit:4;stroke-dasharray:none;stroke-opacity:1"
       d="m 250.51783,801.84437 -125.25891,-2.0203 c 77.23513,-333.93937 38.28669,-299.06936 2.0203,-361.63461 l 181.82746,181.82746 -20.20305,0"
       id="path8068"
       inkscape:connector-curvature="0"
       sodipodi:nodetypes="ccccc" />
    <use
       x="0"
       y="0"
       xlink:href="#path8068"
       id="use8070"
       transform="matrix(-1,0,0,1,576.78835,0)"
       width="100%"
       height="100%" />
    <path
       style="opacity:1;fill:#f70000;fill-opacity:1;fill-rule:nonzero;stroke:none;stroke-width:40;stroke-linecap:round;stroke-linejoin:round;stroke-miterlimit:4;stroke-dasharray:none;stroke-opacity:1"
       id="path8074"
       sodipodi:type="arc"
       sodipodi:cx="161.6244"
       sodipodi:cy="331.35696"
       sodipodi:rx="52.527931"
       sodipodi:ry="54.548237"
       sodipodi:start="3.0860039"
       sodipodi:end="3.0840491"
       d="m 109.17761,334.38767 a 52.527931,54.548237 0 0 1 49.50271,-57.4932 52.527931,54.548237 0 0 1 55.388,51.37856 52.527931,54.548237 0 0 1 -49.44857,57.54341 52.527931,54.548237 0 0 1 -55.43633,-51.32231 l 52.44098,-3.13717 z" />
    <use
       x="0"
       y="0"
       xlink:href="#path8074"
       id="use8076"
       transform="translate(250.51783,2)"
       width="100%"
       height="100%" />
  </g>
</svg>
