<?xml version="1.0" encoding="UTF-8" standalone="no"?>
<svg
   xmlns:dc="http://purl.org/dc/elements/1.1/"
   xmlns:cc="http://creativecommons.org/ns#"
   xmlns:rdf="http://www.w3.org/1999/02/22-rdf-syntax-ns#"
   xmlns:svg="http://www.w3.org/2000/svg"
   xmlns="http://www.w3.org/2000/svg"
   xmlns:sodipodi="http://sodipodi.sourceforge.net/DTD/sodipodi-0.dtd"
   xmlns:inkscape="http://www.inkscape.org/namespaces/inkscape"
   width="24"
   height="24"
   viewBox="0 0 24 24"
   id="svg8092"
   version="1.1"
   inkscape:version="0.91 r13725"
   sodipodi:docname="favicon3.svg">
  <metadata
     id="metadata8102">
    <rdf:RDF>
      <cc:Work
         rdf:about="">
        <dc:format>image/svg+xml</dc:format>
        <dc:type
           rdf:resource="http://purl.org/dc/dcmitype/StillImage" />
        <dc:title />
      </cc:Work>
    </rdf:RDF>
  </metadata>
  <defs
     id="defs8100" />
  <sodipodi:namedview
     pagecolor="#ffffff"
     bordercolor="#666666"
     borderopacity="1"
     objecttolerance="10"
     gridtolerance="10"
     guidetolerance="10"
     inkscape:pageopacity="0"
     inkscape:pageshadow="2"
     inkscape:window-width="1366"
     inkscape:window-height="706"
     id="namedview8098"
     showgrid="false"
     inkscape:zoom="4.9166667"
     inkscape:cx="-21.661016"
     inkscape:cy="15.037266"
     inkscape:window-x="-8"
     inkscape:window-y="-8"
     inkscape:window-maximized="1"
     inkscape:current-layer="svg8092" />
  <path
     style="opacity:1;fill:#ffffff;fill-opacity:1;fill-rule:evenodd;stroke:none;stroke-width:1.0154779;stroke-miterlimit:4;stroke-dasharray:none;stroke-opacity:1"
     id="path17099"
     sodipodi:type="arc"
     sodipodi:cx="12.671862"
     sodipodi:cy="13.702687"
     sodipodi:rx="8.616498"
     sodipodi:ry="7.4059291"
     sodipodi:start="6.2356093"
     sodipodi:end="6.2288656"
     d="M 21.27861,13.350476 A 8.616498,7.4059291 0 0 1 13.096155,21.099632 8.616498,7.4059291 0 0 1 4.0665441,14.07984 8.616498,7.4059291 0 0 1 12.218552,6.3070142 8.616498,7.4059291 0 0 1 21.275651,13.300597 l -8.603789,0.40209 z"
     inkscape:export-xdpi="125.15987"
     inkscape:export-ydpi="125.15987" />
  <path
     d="m 12.521135,4.3146468 c -5.7407095,0 -10.3894258,4.167502 -10.3894258,9.3024632 0,5.134962 4.6487163,9.302469 10.3894258,9.302469 5.751105,0 10.410222,-4.167507 10.410222,-9.302469 0,-5.1349612 -4.659117,-9.3024632 -10.410222,-9.3024632 z m 7.207078,5.581479 -3.067946,0 c -0.332793,-1.162808 -0.811184,-2.2791046 -1.435183,-3.3116742 1.913574,0.5860516 3.504747,1.7767682 4.503129,3.3116742 z M 12.531534,6.2123509 c 0.863188,1.1162925 1.539173,2.3535219 1.986366,3.6837749 l -3.97273,0 c 0.447192,-1.330253 1.123179,-2.5674824 1.986364,-3.6837749 z M 4.4820711,15.477607 C 4.3156592,14.882248 4.2116792,14.258981 4.2116792,13.61711 c 0,-0.641871 0.1039924,-1.265132 0.2703919,-1.860494 l 3.515139,0 c -0.083241,0.613966 -0.1456022,1.227929 -0.1456022,1.860494 0,0.632569 0.062371,1.24653 0.1456022,1.860497 l -3.515139,0 z m 0.8527876,1.86049 3.067945,0 c 0.332801,1.16281 0.8111901,2.279106 1.4351813,3.311677 C 7.9244147,20.06372 6.3332466,18.882306 5.3348587,17.338097 Z m 3.067945,-7.4419712 -3.067945,0 C 6.3332466,8.3519158 7.9244147,7.1705032 9.837985,6.5844516 9.2139938,7.6170212 8.7356047,8.7333178 8.4028037,9.8961258 Z M 12.531534,21.021877 c -0.863185,-1.116299 -1.539172,-2.353528 -1.986364,-3.68378 l 3.97273,0 c -0.447193,1.330252 -1.123178,2.567481 -1.986366,3.68378 z m 2.433557,-5.54427 -4.867114,0 c -0.0936,-0.613967 -0.166386,-1.227928 -0.166386,-1.860497 0,-0.632565 0.072754,-1.255834 0.166386,-1.860494 l 4.867114,0 c 0.09361,0.60466 0.166411,1.227929 0.166411,1.860494 0,0.632569 -0.07275,1.24653 -0.166411,1.860497 z m 0.259993,5.172167 c 0.623999,-1.032571 1.10239,-2.148867 1.435183,-3.311677 l 3.067946,0 c -0.998382,1.534908 -2.589555,2.725623 -4.503129,3.311677 z m 1.840775,-5.172167 c 0.0832,-0.613967 0.145608,-1.227928 0.145608,-1.860497 0,-0.632565 -0.06238,-1.246528 -0.145608,-1.860494 l 3.515141,0 c 0.166409,0.595362 0.270394,1.218623 0.270394,1.860494 0,0.641871 -0.104006,1.265138 -0.270394,1.860497 l -3.515141,0 z"
     id="path8096"
     inkscape:connector-curvature="0"
     style="fill:#00eaff;fill-opacity:0.93150689;stroke:#17a4ec;stroke-width:0.96648508;stroke-miterlimit:4;stroke-dasharray:none;stroke-opacity:1"
     inkscape:export-xdpi="125.15987"
     inkscape:export-ydpi="125.15987" />
  <path
     style="fill:#ff8080;fill-opacity:1;fill-rule:evenodd;stroke:#f500a4;stroke-width:0.35748065px;stroke-linecap:butt;stroke-linejoin:miter;stroke-opacity:0.42465754"
     d="M 5.0055047,4.6617857 C 3.9102482,8.3107518 8.6610963,9.2890988 8.6610963,9.2890988 12.403784,9.0563768 16.937015,3.1407777 15.221395,5.1463291 12.778837,8.0016635 16.869875,6.1568967 18.205466,5.775281 16.975654,-3.8600085 9.9544857,3.0481567 9.2158379,5.5020571 9.523556,2.835177 15.479277,0.66535263 8.035236,0.57212883 7.5301762,1.2597879 6.8077296,-0.10733277 5.0055047,4.6617857 Z"
     id="path17089"
     inkscape:connector-curvature="0"
     sodipodi:nodetypes="ccscccc"
     inkscape:export-xdpi="125.15987"
     inkscape:export-ydpi="125.15987" />
  <text
     xml:space="preserve"
     style="font-style:normal;font-weight:bold;font-size:3.9694705px;line-height:125%;font-family:Tahoma;letter-spacing:0px;word-spacing:0px;fill:#800000;fill-opacity:1;stroke:none;stroke-width:1px;stroke-linecap:butt;stroke-linejoin:miter;stroke-opacity:1;-inkscape-font-specification:'Tahoma Bold';font-stretch:normal;font-variant:normal;"
     x="4.7121429"
     y="12.104829"
     id="text8084"
     sodipodi:linespacing="125%"
     transform="scale(0.79860493,1.2521836)"><tspan
       sodipodi:role="line"
       id="tspan8086"
       x="4.7121429"
       y="12.104829"
       style="fill:#800000;fill-opacity:1;stroke:none;stroke-opacity:1;-inkscape-font-specification:'Tahoma Bold';font-family:Tahoma;font-weight:bold;font-style:normal;font-stretch:normal;font-variant:normal;">MEGAGLOT</tspan></text>
</svg>
