<?xml version="1.0" encoding="UTF-8" standalone="no"?>
<!-- Created with Inkscape (http://www.inkscape.org/) -->

<svg
   xmlns:dc="http://purl.org/dc/elements/1.1/"
   xmlns:cc="http://creativecommons.org/ns#"
   xmlns:rdf="http://www.w3.org/1999/02/22-rdf-syntax-ns#"
   xmlns:svg="http://www.w3.org/2000/svg"
   xmlns="http://www.w3.org/2000/svg"
   xmlns:xlink="http://www.w3.org/1999/xlink"
   xmlns:sodipodi="http://sodipodi.sourceforge.net/DTD/sodipodi-0.dtd"
   xmlns:inkscape="http://www.inkscape.org/namespaces/inkscape"
   width="210mm"
   height="297mm"
   viewBox="0 0 744.09448819 1052.3622047"
   id="svg2"
   version="1.1"
   inkscape:version="0.91 r13725"
   sodipodi:docname="favicon10.svg">
  <defs
     id="defs4" />
  <sodipodi:namedview
     id="base"
     pagecolor="#ffffff"
     bordercolor="#666666"
     borderopacity="1.0"
     inkscape:pageopacity="0.0"
     inkscape:pageshadow="2"
     inkscape:zoom="0.24748737"
     inkscape:cx="214.88742"
     inkscape:cy="363.63051"
     inkscape:document-units="px"
     inkscape:current-layer="layer1"
     showgrid="false"
     inkscape:window-width="1366"
     inkscape:window-height="706"
     inkscape:window-x="-8"
     inkscape:window-y="-8"
     inkscape:window-maximized="1" />
  <metadata
     id="metadata7">
    <rdf:RDF>
      <cc:Work
         rdf:about="">
        <dc:format>image/svg+xml</dc:format>
        <dc:type
           rdf:resource="http://purl.org/dc/dcmitype/StillImage" />
        <dc:title></dc:title>
      </cc:Work>
    </rdf:RDF>
  </metadata>
  <g
     inkscape:label="Layer 1"
     inkscape:groupmode="layer"
     id="layer1">
    <path
       style="opacity:1;fill:#f03b38;fill-opacity:0.9623288;fill-rule:nonzero;stroke:none;stroke-width:60;stroke-linecap:round;stroke-linejoin:round;stroke-miterlimit:4;stroke-dasharray:none;stroke-opacity:1"
       id="path8078"
       sodipodi:type="arc"
       sodipodi:cx="422.77307"
       sodipodi:cy="525.59058"
       sodipodi:rx="407.05878"
       sodipodi:ry="362.85715"
       sodipodi:start="3.0860039"
       sodipodi:end="3.0840491"
       d="M 16.343061,545.75097 A 407.05878,362.85715 0 0 1 399.95821,163.30381 407.05878,362.85715 0 0 1 829.18078,505.07609 407.05878,362.85715 0 0 1 445.98515,887.85729 407.05878,362.85715 0 0 1 16.388047,546.45914 L 422.77307,525.59058 Z" />
    <path
       style="opacity:1;fill:#35b99e;fill-opacity:1;fill-rule:nonzero;stroke:none;stroke-width:20;stroke-linecap:round;stroke-linejoin:round;stroke-miterlimit:4;stroke-dasharray:none;stroke-opacity:1"
       id="path8072"
       sodipodi:type="arc"
       sodipodi:cx="423.15015"
       sodipodi:cy="593.54987"
       sodipodi:rx="275.21976"
       sodipodi:ry="282.84271"
       sodipodi:start="3.0860039"
       sodipodi:end="3.0840491"
       d="M 148.35551,609.26464 A 275.21976,282.84271 0 0 1 407.72461,311.15176 275.21976,282.84271 0 0 1 697.92971,577.55907 275.21976,282.84271 0 0 1 438.84425,875.93234 275.21976,282.84271 0 0 1 148.38593,609.81666 l 274.76422,-16.26679 z" />
    <path
       style="fill:none;fill-opacity:1;fill-rule:evenodd;stroke:#ffffff;stroke-width:84.003685;stroke-linecap:round;stroke-linejoin:round;stroke-miterlimit:4;stroke-dasharray:none;stroke-opacity:1"
       d="m 356.69228,812.42433 -168.25124,-2.94826 c 103.74436,-487.32374 51.42772,-436.4373 2.71371,-527.7399 l 244.2357,265.34409 -27.13731,0"
       id="path8068"
       inkscape:connector-curvature="0"
       sodipodi:nodetypes="ccccc" />
    <use
       x="0"
       y="0"
       xlink:href="#path8068"
       id="use8070"
       transform="matrix(-1,0,0,1,845.14363,0)"
       width="100%"
       height="100%" />
    <use
       x="0"
       y="0"
       xlink:href="#path8074"
       id="use8076"
       transform="translate(344.0247,1.9999995)"
       width="100%"
       height="100%" />
    <path
       style="opacity:1;fill:#ffffff;fill-opacity:0.95294118;fill-rule:nonzero;stroke:none;stroke-width:40;stroke-linecap:round;stroke-linejoin:round;stroke-miterlimit:4;stroke-dasharray:none;stroke-opacity:1"
       id="path8074"
       sodipodi:type="arc"
       sodipodi:cx="246.55081"
       sodipodi:cy="169.52951"
       sodipodi:rx="59.630947"
       sodipodi:ry="54.548237"
       sodipodi:start="3.0860039"
       sodipodi:end="3.0840491"
       d="m 187.01197,172.56022 a 59.630947,54.548237 0 0 1 56.19664,-57.4932 59.630947,54.548237 0 0 1 62.87777,51.37855 59.630947,54.548237 0 0 1 -56.13518,57.54342 59.630947,54.548237 0 0 1 -62.93264,-51.32231 l 59.53225,-3.13717 z" />
  </g>
</svg>
