<?xml version="1.0" encoding="UTF-8" standalone="no"?>
<!-- Created with Inkscape (http://www.inkscape.org/) -->

<svg
   width="210mm"
   height="297mm"
   viewBox="0 0 210 297"
   version="1.1"
   id="svg921"
   inkscape:version="1.1 (c68e22c387, 2021-05-23)"
   sodipodi:docname="favicon107.svg"
   xmlns:inkscape="http://www.inkscape.org/namespaces/inkscape"
   xmlns:sodipodi="http://sodipodi.sourceforge.net/DTD/sodipodi-0.dtd"
   xmlns:xlink="http://www.w3.org/1999/xlink"
   xmlns="http://www.w3.org/2000/svg"
   xmlns:svg="http://www.w3.org/2000/svg">
  <sodipodi:namedview
     id="namedview923"
     pagecolor="#ffffff"
     bordercolor="#666666"
     borderopacity="1.0"
     inkscape:pageshadow="2"
     inkscape:pageopacity="0.0"
     inkscape:pagecheckerboard="0"
     inkscape:document-units="mm"
     showgrid="false"
     inkscape:zoom="0.60221134"
     inkscape:cx="107.10526"
     inkscape:cy="880.08971"
     inkscape:window-width="1366"
     inkscape:window-height="706"
     inkscape:window-x="-8"
     inkscape:window-y="-8"
     inkscape:window-maximized="1"
     inkscape:current-layer="layer1" />
  <defs
     id="defs918" />
  <g
     inkscape:label="Слой 1"
     inkscape:groupmode="layer"
     id="layer1">
    <path
       sodipodi:type="star"
       style="fill:#f7e8f1;fill-rule:evenodd;stroke:none;stroke-width:3.77953;stroke-linecap:round;stroke-linejoin:round;fill-opacity:1"
       id="path1004"
       inkscape:flatsided="true"
       sodipodi:sides="6"
       sodipodi:cx="197.26286"
       sodipodi:cy="464.97678"
       sodipodi:r1="127.28932"
       sodipodi:r2="110.23578"
       sodipodi:arg1="1.0493619"
       sodipodi:arg2="1.5729607"
       inkscape:rounded="0"
       inkscape:randomized="0"
       d="M 260.66879,575.35005 133.37976,575.07456 69.973839,464.70128 133.85694,354.6035 l 127.28902,0.2755 63.40593,110.37327 z"
       transform="matrix(0.26458333,0,0,0.26458333,47.843096,29.202929)"
       inkscape:transform-center-y="-1.5499226e-06" />
    <path
       style="fill:#f4f5f5;fill-opacity:0.01606426;fill-rule:evenodd;stroke:#f01616;stroke-width:3.77953;stroke-linecap:round;stroke-linejoin:round;stroke-opacity:1"
       id="path1440"
       sodipodi:type="arc"
       sodipodi:cx="116.93797"
       sodipodi:cy="123.098"
       sodipodi:rx="7.0677299"
       sodipodi:ry="6.4463911"
       sodipodi:start="4.9699957"
       sodipodi:end="4.8231733"
       sodipodi:arc-type="arc"
       d="m 118.7386,116.86432 a 7.0677299,6.4463911 0 0 1 5.09536,7.64614 7.0677299,6.4463911 0 0 1 -8.19048,4.92488 7.0677299,6.4463911 0 0 1 -5.6965,-7.28467 7.0677299,6.4463911 0 0 1 7.77239,-5.45954"
       sodipodi:open="true" />
    <use
       x="0"
       y="0"
       xlink:href="#path1440"
       id="use3729"
       transform="translate(16.127376,29.232583)"
       width="100%"
       height="100%" />
    <use
       x="0"
       y="0"
       xlink:href="#path1440"
       id="use3731"
       transform="translate(-0.65902944,57.26018)"
       width="100%"
       height="100%" />
    <use
       x="0"
       y="0"
       xlink:href="#path1440"
       id="use3733"
       transform="translate(-33.663803,57.490897)"
       width="100%"
       height="100%" />
    <use
       x="0"
       y="0"
       xlink:href="#use3733"
       id="use3735"
       transform="translate(-16.861787,-28.493601)"
       width="100%"
       height="100%" />
    <use
       x="0"
       y="0"
       xlink:href="#use3735"
       id="use3737"
       transform="translate(17.279061,-29.232583)"
       width="100%"
       height="100%" />
    <path
       sodipodi:type="star"
       style="fill:#f4f5f5;fill-opacity:0.0160643;fill-rule:evenodd;stroke:#ee3812;stroke-width:3.77953;stroke-linecap:round;stroke-linejoin:round;stroke-opacity:1"
       id="path3897"
       inkscape:flatsided="true"
       sodipodi:sides="5"
       sodipodi:cx="36.532024"
       sodipodi:cy="813.66785"
       sodipodi:r1="145.61772"
       sodipodi:r2="117.80721"
       sodipodi:arg1="0.8015258"
       sodipodi:arg2="1.4298443"
       inkscape:rounded="0"
       inkscape:randomized="0"
       d="M 137.82537,918.28228 -31.660852,942.33118 -106.90683,788.57172 16.074812,669.49426 167.32763,749.65979 Z"
       transform="scale(0.26458333)"
       inkscape:transform-center-x="1.6725971"
       inkscape:transform-center-y="-2.0518805" />
    <path
       sodipodi:type="star"
       style="fill:#f4f5f5;fill-opacity:0.0160643;fill-rule:evenodd;stroke:#ee3812;stroke-width:3.77953;stroke-linecap:round;stroke-linejoin:round;stroke-opacity:1"
       id="path3921"
       inkscape:flatsided="true"
       sodipodi:sides="5"
       sodipodi:cx="97.972252"
       sodipodi:cy="845.2182"
       sodipodi:r1="38.76585"
       sodipodi:r2="31.362232"
       sodipodi:arg1="1.7429871"
       sodipodi:arg2="2.3713057"
       inkscape:rounded="0"
       inkscape:randomized="0"
       d="m 91.330067,883.41077 -31.733657,-32.70751 21.300452,-40.28768 44.898058,7.80836 6.44808,45.11351 z"
       transform="scale(0.26458333)"
       inkscape:transform-center-x="0.54307044"
       inkscape:transform-center-y="0.44845971" />
    <path
       style="fill:#f435f5;fill-opacity:0.983936;fill-rule:evenodd;stroke:#0000b2;stroke-width:0.264583px;stroke-linecap:butt;stroke-linejoin:miter;stroke-opacity:1"
       d="m 15.768217,225.0819 -44.053981,-16.43897 c -10.081192,9.22975 -22.912683,12.70887 -27.072706,34.31925 1.197167,4.65298 -6.345139,20.48294 46.9815372,6.36294 L 24.164414,233.73576 Z"
       id="path3956"
       sodipodi:nodetypes="cccccc" />
    <path
       style="fill:#f4353b;fill-opacity:0.983936;fill-rule:evenodd;stroke:#000000;stroke-width:0.264583px;stroke-linecap:butt;stroke-linejoin:miter;stroke-opacity:1"
       d="m 24.164413,233.73576 -32.5413464,15.58936 c 5.0671035,12.64493 10.4698283,24.89321 28.1478164,22.63437 14.17342,-6.22246 13.447387,-18.40469 16.69541,-28.99731 l -1.477,-14.53749 z"
       id="path4090"
       sodipodi:nodetypes="cccccc" />
    <path
       style="fill:#4235e9;fill-opacity:0.983936;fill-rule:evenodd;stroke:#000000;stroke-width:0.264583px;stroke-linecap:butt;stroke-linejoin:miter;stroke-opacity:1"
       d="m 34.989293,228.42469 1.477,14.53749 c 20.769064,0.0401 37.413239,-3.04895 41.299179,-15.8167 0.369976,-21.44551 -12.207818,-29.59331 -33.49337,-28.798 l -10.988863,18.14093 z"
       id="path4158"
       sodipodi:nodetypes="cccccc" />
    <path
       style="fill:#42d93b;fill-opacity:0.983936;fill-rule:evenodd;stroke:#000000;stroke-width:0.264583px;stroke-linecap:butt;stroke-linejoin:miter;stroke-opacity:1"
       d="m 21.403961,214.42245 11.879278,2.06596 10.988863,-18.14093 c 7.230508,-13.68369 9.751846,-26.9259 -1.654866,-38.86236 -16.635903,-10.09948 -29.343483,-3.88131 -38.3641087,17.6519 z"
       id="path4259"
       sodipodi:nodetypes="cccccc" />
    <path
       style="fill:#f3d93b;fill-opacity:0.983936;fill-rule:evenodd;stroke:#000000;stroke-width:0.264583px;stroke-linecap:butt;stroke-linejoin:miter;stroke-opacity:1"
       d="M 15.768216,225.0819 21.403961,214.42245 4.2531273,177.13702 C -12.747147,154.60738 -28.393868,151.61077 -45.692708,161.24253 c -2.609568,9.02336 -13.133181,6.43594 17.406943,47.4004 z"
       id="path4327"
       sodipodi:nodetypes="cccccc" />
  </g>
</svg>
