<?xml version="1.0" encoding="UTF-8" standalone="no"?>
<!-- Created with Inkscape (http://www.inkscape.org/) -->

<svg
   xmlns:dc="http://purl.org/dc/elements/1.1/"
   xmlns:cc="http://creativecommons.org/ns#"
   xmlns:rdf="http://www.w3.org/1999/02/22-rdf-syntax-ns#"
   xmlns:svg="http://www.w3.org/2000/svg"
   xmlns="http://www.w3.org/2000/svg"
   xmlns:xlink="http://www.w3.org/1999/xlink"
   xmlns:sodipodi="http://sodipodi.sourceforge.net/DTD/sodipodi-0.dtd"
   xmlns:inkscape="http://www.inkscape.org/namespaces/inkscape"
   width="210mm"
   height="297mm"
   viewBox="0 0 744.09448819 1052.3622047"
   id="svg2"
   version="1.1"
   inkscape:version="0.91 r13725"
   sodipodi:docname="favicon9.svg">
  <defs
     id="defs4" />
  <sodipodi:namedview
     id="base"
     pagecolor="#ffffff"
     bordercolor="#666666"
     borderopacity="1.0"
     inkscape:pageopacity="0.0"
     inkscape:pageshadow="2"
     inkscape:zoom="0.24748737"
     inkscape:cx="214.88742"
     inkscape:cy="363.63051"
     inkscape:document-units="px"
     inkscape:current-layer="layer1"
     showgrid="false"
     inkscape:window-width="1366"
     inkscape:window-height="706"
     inkscape:window-x="-8"
     inkscape:window-y="-8"
     inkscape:window-maximized="1" />
  <metadata
     id="metadata7">
    <rdf:RDF>
      <cc:Work
         rdf:about="">
        <dc:format>image/svg+xml</dc:format>
        <dc:type
           rdf:resource="http://purl.org/dc/dcmitype/StillImage" />
        <dc:title></dc:title>
      </cc:Work>
    </rdf:RDF>
  </metadata>
  <g
     inkscape:label="Layer 1"
     inkscape:groupmode="layer"
     id="layer1">
    <path
       style="opacity:1;fill:#f03b38;fill-opacity:0.9623288;fill-rule:nonzero;stroke:none;stroke-width:60;stroke-linecap:round;stroke-linejoin:round;stroke-miterlimit:4;stroke-dasharray:none;stroke-opacity:1"
       id="path8078"
       sodipodi:type="arc"
       sodipodi:cx="374.28574"
       sodipodi:cy="525.59058"
       sodipodi:rx="358.57144"
       sodipodi:ry="362.85715"
       sodipodi:start="3.0860039"
       sodipodi:end="3.0840491"
       d="M 16.268164,545.75097 A 358.57144,362.85715 0 0 1 354.1885,163.30381 358.57144,362.85715 0 0 1 732.28366,505.07609 358.57144,362.85715 0 0 1 394.73288,887.85729 358.57144,362.85715 0 0 1 16.307792,546.45914 L 374.28574,525.59058 Z" />
    <path
       style="opacity:1;fill:#f5b99e;fill-opacity:1;fill-rule:nonzero;stroke:none;stroke-width:20;stroke-linecap:round;stroke-linejoin:round;stroke-miterlimit:4;stroke-dasharray:none;stroke-opacity:1"
       id="path8072"
       sodipodi:type="arc"
       sodipodi:cx="374.61792"
       sodipodi:cy="593.54987"
       sodipodi:rx="242.43661"
       sodipodi:ry="282.84271"
       sodipodi:start="3.0860039"
       sodipodi:end="3.0840491"
       d="M 132.55579,609.26464 A 242.43661,282.84271 0 0 1 361.02982,311.15176 242.43661,282.84271 0 0 1 616.66677,577.55907 242.43661,282.84271 0 0 1 388.4426,875.93234 242.43661,282.84271 0 0 1 132.58258,609.81666 l 242.03534,-16.26679 z" />
    <path
       style="fill:none;fill-opacity:1;fill-rule:evenodd;stroke:#ffffff;stroke-width:78.842;stroke-linecap:round;stroke-linejoin:round;stroke-miterlimit:4;stroke-dasharray:none;stroke-opacity:1"
       d="m 316.07625,812.42433 -148.20978,-2.94826 c 91.38672,-487.32374 45.30185,-436.4373 2.39047,-527.7399 l 215.14325,265.34409 -23.90481,0"
       id="path8068"
       inkscape:connector-curvature="0"
       sodipodi:nodetypes="ccccc" />
    <use
       x="0"
       y="0"
       xlink:href="#path8068"
       id="use8070"
       transform="matrix(-1,0,0,1,748.21693,0)"
       width="100%"
       height="100%" />
    <use
       x="0"
       y="0"
       xlink:href="#path8074"
       id="use8076"
       transform="translate(303.04576,1.9999995)"
       width="100%"
       height="100%" />
    <path
       style="opacity:1;fill:#ffffff;fill-opacity:0.95294118;fill-rule:nonzero;stroke:none;stroke-width:40;stroke-linecap:round;stroke-linejoin:round;stroke-miterlimit:4;stroke-dasharray:none;stroke-opacity:1"
       id="path8074"
       sodipodi:type="arc"
       sodipodi:cx="219.05443"
       sodipodi:cy="169.52951"
       sodipodi:rx="52.527931"
       sodipodi:ry="54.548237"
       sodipodi:start="3.0860039"
       sodipodi:end="3.0840491"
       d="m 166.60763,172.56022 a 52.527931,54.548237 0 0 1 49.50271,-57.4932 52.527931,54.548237 0 0 1 55.388,51.37855 52.527931,54.548237 0 0 1 -49.44856,57.54342 52.527931,54.548237 0 0 1 -55.43634,-51.32231 l 52.44099,-3.13717 z" />
  </g>
</svg>
