<?xml version="1.0" encoding="UTF-8" standalone="no"?>
<!-- Created with Inkscape (http://www.inkscape.org/) -->

<svg
   width="210mm"
   height="297mm"
   viewBox="0 0 210 297"
   version="1.1"
   id="svg5"
   inkscape:version="1.1 (c68e22c387, 2021-05-23)"
   sodipodi:docname="favicon111.svg"
   xmlns:inkscape="http://www.inkscape.org/namespaces/inkscape"
   xmlns:sodipodi="http://sodipodi.sourceforge.net/DTD/sodipodi-0.dtd"
   xmlns="http://www.w3.org/2000/svg"
   xmlns:svg="http://www.w3.org/2000/svg">
  <sodipodi:namedview
     id="namedview7"
     pagecolor="#ffffff"
     bordercolor="#666666"
     borderopacity="1.0"
     inkscape:pageshadow="2"
     inkscape:pageopacity="0.0"
     inkscape:pagecheckerboard="0"
     inkscape:document-units="mm"
     showgrid="false"
     inkscape:zoom="0.30110568"
     inkscape:cx="-94.651154"
     inkscape:cy="557.94364"
     inkscape:window-width="1366"
     inkscape:window-height="706"
     inkscape:window-x="-8"
     inkscape:window-y="-8"
     inkscape:window-maximized="1"
     inkscape:current-layer="layer1" />
  <defs
     id="defs2" />
  <g
     inkscape:label="Слой 1"
     inkscape:groupmode="layer"
     id="layer1">
    <rect
       style="fill:#1e9e09;fill-opacity:1;fill-rule:evenodd;stroke:#54f04d;stroke-width:13.1928;stroke-linecap:round;stroke-linejoin:round;stroke-miterlimit:4;stroke-dasharray:none;stroke-opacity:1"
       id="rect8583"
       width="359.45639"
       height="236.43758"
       x="-67.253845"
       y="35.115391" />
    <path
       style="fill:#e0792a;fill-opacity:1;fill-rule:evenodd;stroke:#7c32c8;stroke-width:0;stroke-linecap:round;stroke-linejoin:round;stroke-miterlimit:4;stroke-dasharray:none;stroke-opacity:1"
       id="path7667"
       sodipodi:type="arc"
       sodipodi:cx="72.9039"
       sodipodi:cy="146.056"
       sodipodi:rx="73.537811"
       sodipodi:ry="48.731693"
       sodipodi:start="4.7511617"
       sodipodi:end="4.7502715"
       sodipodi:arc-type="slice"
       d="M 75.754447,97.360932 A 73.537811,48.731693 0 0 1 146.38708,147.93415 73.537811,48.731693 0 0 1 70.086061,194.7519 73.537811,48.731693 0 0 1 -0.58052928,144.19952 73.537811,48.731693 0 0 1 75.689031,97.359269 L 72.9039,146.056 Z" />
    <path
       style="fill:none;fill-opacity:1;fill-rule:evenodd;stroke:#fdf8f1;stroke-width:16.665;stroke-linecap:round;stroke-linejoin:round;stroke-miterlimit:4;stroke-dasharray:none;stroke-opacity:1"
       d="m 46.724529,143.88793 0.0065,1.55667 0.148823,30.93691 -8.764113,-0.21668 0.187587,-57.34453 29.422603,40.24273 c 2.679937,-18.10378 14.6018,-41.42301 39.110441,-40.43576 l -0.0377,7.45607 c -19.975569,-1.38518 -43.905633,29.02552 -13.453559,47.92951 16.963879,6.35787 32.133869,-7.89917 31.482549,-20.58929 -13.77656,0.1602 -27.858255,0.34575 -33.057414,0.3206 -0.308943,-0.001 -0.901682,-0.29023 -0.88887,-0.007 l 0.368411,8.14438 20.455723,-0.0585"
       sodipodi:nodetypes="ccccccccccsscc"
       id="path7571" />
    <path
       style="fill:none;fill-opacity:1;fill-rule:evenodd;stroke:#ef0000;stroke-width:4.7;stroke-linecap:round;stroke-linejoin:round;stroke-miterlimit:4;stroke-dasharray:none;stroke-opacity:1"
       d="m 46.724529,144.41709 0.0065,1.55667 0.148823,30.40775 -8.764113,-0.21668 0.187587,-57.34453 29.422603,40.24273 c 2.679937,-18.10378 14.6018,-41.42301 39.110441,-40.43576 l -0.0377,7.45607 c -19.975569,-1.38518 -43.905633,29.02552 -13.453559,47.92951 16.963879,6.35787 32.133869,-7.89917 31.482549,-20.58929 -13.77656,0.1602 -27.858255,0.34575 -33.057414,0.3206 -0.308943,-0.001 -0.901682,-0.29023 -0.88887,-0.007 l 0.368411,8.14438 20.455723,-0.0585"
       sodipodi:nodetypes="ccccccccccsscc"
       id="path857" />
  </g>
</svg>
