<svg xmlns="http://www.w3.org/2000/svg" viewBox="0 0 19.6 20"><defs><style>.cls-1{fill:#3e82f1;}.cls-1,.cls-2,.cls-3,.cls-4{fill-rule:evenodd;}.cls-2{fill:#32a753;}.cls-3{fill:#f9bb00;}.cls-4{fill:#e74133;}</style></defs><title>google</title><g id="Layer_2" data-name="Layer 2"><g id="Layer_1-2" data-name="Layer 1"><g id="empty"><g id="Register_Using" data-name="Register Using"><g id="Google_" data-name="Google+"><g id="ICON"><path class="cls-1" d="M19.6,10.23a11.49,11.49,0,0,0-.18-2H10v3.87h5.38a4.6,4.6,0,0,1-2,3v2.51h3.23a9.75,9.75,0,0,0,3-7.35Zm0,0"/><path class="cls-2" d="M10,20a9.55,9.55,0,0,0,6.62-2.42l-3.23-2.51a6,6,0,0,1-9-3.17H1.06v2.59A10,10,0,0,0,10,20Zm0,0"/><path class="cls-3" d="M4.4,11.9a5.91,5.91,0,0,1,0-3.8V5.51H1.06a10,10,0,0,0,0,9L4.4,11.9Zm0,0"/><path class="cls-4" d="M10,4a5.4,5.4,0,0,1,3.82,1.5L16.69,2.6A9.61,9.61,0,0,0,10,0,10,10,0,0,0,1.06,5.51L4.4,8.1A6,6,0,0,1,10,4Zm0,0"/></g></g></g></g></g></g></svg>