<?xml version="1.0" encoding="UTF-8" standalone="no"?>
<!-- Created with Inkscape (http://www.inkscape.org/) -->

<svg
   xmlns:dc="http://purl.org/dc/elements/1.1/"
   xmlns:cc="http://creativecommons.org/ns#"
   xmlns:rdf="http://www.w3.org/1999/02/22-rdf-syntax-ns#"
   xmlns:svg="http://www.w3.org/2000/svg"
   xmlns="http://www.w3.org/2000/svg"
   xmlns:sodipodi="http://sodipodi.sourceforge.net/DTD/sodipodi-0.dtd"
   xmlns:inkscape="http://www.inkscape.org/namespaces/inkscape"
   width="210mm"
   height="297mm"
   viewBox="0 0 744.09448819 1052.3622047"
   id="svg2"
   version="1.1"
   inkscape:version="0.91 r13725"
   sodipodi:docname="mfavicon3.svg">
  <defs
     id="defs4" />
  <sodipodi:namedview
     id="base"
     pagecolor="#ffffff"
     bordercolor="#666666"
     borderopacity="1.0"
     inkscape:pageopacity="0.0"
     inkscape:pageshadow="2"
     inkscape:zoom="0.175"
     inkscape:cx="1877.1695"
     inkscape:cy="865.24423"
     inkscape:document-units="px"
     inkscape:current-layer="layer1"
     showgrid="false"
     inkscape:window-width="1366"
     inkscape:window-height="706"
     inkscape:window-x="-8"
     inkscape:window-y="-8"
     inkscape:window-maximized="1" />
  <metadata
     id="metadata7">
    <rdf:RDF>
      <cc:Work
         rdf:about="">
        <dc:format>image/svg+xml</dc:format>
        <dc:type
           rdf:resource="http://purl.org/dc/dcmitype/StillImage" />
        <dc:title></dc:title>
      </cc:Work>
    </rdf:RDF>
  </metadata>
  <g
     inkscape:label="Layer 1"
     inkscape:groupmode="layer"
     id="layer1">
    <path
       style="opacity:1;fill:#3ce9ff;fill-opacity:0.92941176;fill-rule:nonzero;stroke:#f03300;stroke-width:100;stroke-linecap:round;stroke-linejoin:round;stroke-miterlimit:4;stroke-dasharray:none;stroke-opacity:0.0437956"
       id="path8090"
       sodipodi:type="arc"
       sodipodi:cx="384.31046"
       sodipodi:cy="631.4931"
       sodipodi:rx="404.061"
       sodipodi:ry="383.85797"
       sodipodi:start="6.2356076"
       sodipodi:end="6.2288707"
       d="M 787.91422,613.23691 A 404.061,383.85797 0 0 1 404.20723,1014.8854 404.061,383.85797 0 0 1 -19.22629,651.04073 404.061,383.85797 0 0 1 363.05439,248.16664 404.061,383.85797 0 0 1 787.7756,610.65426 L 384.31046,631.4931 Z" />
    <path
       sodipodi:nodetypes="ccccccccc"
       inkscape:connector-curvature="0"
       id="path8088"
       d="M 343.07736,858.77705 C 86.023958,647.83344 304.23466,816.55392 68.813358,630.2109 L 292.31976,392.05457 c 62.3896,81.09036 29.4767,5.28721 238.5031,236.87764 l -145.063,110.28716 -149.9656,-118.27898 252.6344,-235.27929 208.5099,252.54163 -235.6159,213.63092"
       style="fill:#ffffff;fill-opacity:1;fill-rule:evenodd;stroke:#ffffff;stroke-width:106.27110291;stroke-linecap:round;stroke-linejoin:round;stroke-miterlimit:4;stroke-dasharray:none;stroke-opacity:1" />
    <path
       style="fill:none;fill-opacity:1;fill-rule:evenodd;stroke:#f00000;stroke-width:100;stroke-linecap:round;stroke-linejoin:round;stroke-miterlimit:4;stroke-dasharray:none;stroke-opacity:1"
       d="M 353.54896,833.67306 C 98.885258,645.13786 315.06736,795.93527 81.834658,629.38735 L 303.26316,416.53021 c 61.8096,72.47619 29.2027,4.72556 236.2858,211.71428 l -143.7143,98.57143 -148.5715,-105.71428 250.2858,-210.28572 206.5714,225.71429 c -237.4285,183.71428 0,0 -237.4285,183.71428"
       id="path8068"
       inkscape:connector-curvature="0"
       sodipodi:nodetypes="ccccccccc" />
  </g>
</svg>
