<svg xmlns="http://www.w3.org/2000/svg" viewBox="0 0 28 15"><defs><style>.cls-1{fill:#2c5e5e;}</style></defs><title>proz</title><g id="Layer_2" data-name="Layer 2"><g id="Layer_1-2" data-name="Layer 1"><g id="empty"><g id="Register_Using" data-name="Register Using"><g id="Register_Using-2" data-name="Register Using"><g id="Google_" data-name="Google+"><path class="cls-1" d="M22.74,0C17.1,0,6,0,6,0V9c-1.78.06-3.81,0-6,0v1H6c0,1.35,0,5,0,5H7V10H23a5.13,5.13,0,0,0,5-5C28,2,26,0,22.74,0Zm3.77,7A3.91,3.91,0,0,1,23,9H7V1H23a3.77,3.77,0,0,1,3.59,2.35A3.91,3.91,0,0,1,26.51,7Z"/></g></g></g></g></g></g></svg>